<?xml version="1.0" encoding="UTF-8" standalone="no"?><!DOCTYPE svg PUBLIC "-//W3C//DTD SVG 1.1//EN" "http://www.w3.org/Graphics/SVG/1.1/DTD/svg11.dtd"><svg width="100%" height="100%" viewBox="0 0 2568 1743" version="1.1" xmlns="http://www.w3.org/2000/svg" xmlns:xlink="http://www.w3.org/1999/xlink" xml:space="preserve" xmlns:serif="http://www.serif.com/" style="fill-rule:evenodd;clip-rule:evenodd;stroke-linejoin:round;stroke-miterlimit:2;"><g><g><path d="M813.185,60.575c189.451,21.421 387.06,73.916 576.115,148.828c208.088,82.45 430.721,204.085 626.878,358.287c253.094,199.11 440.672,428 488.345,643.38c63.379,286.386 -129.504,523.238 -612.808,531.299c-526.674,8.807 -1090.67,-254.143 -1476.78,-591.88c-307.763,-269.17 -448.987,-537.07 -407.992,-747.45c30.356,-155.844 156.745,-255.959 313.702,-307.534c131.22,-43.141 303.091,-56.352 492.543,-34.93Z" style="fill:#919191;"/></g><g><path d="M858.859,10.467c189.544,21.528 387.385,73.217 576.748,146.694c208.437,80.816 431.579,199.752 628.36,350.194c253.923,194.274 442.433,417.183 490.969,626.473c64.534,278.243 -127.413,507.407 -610.733,513.403c-526.687,6.487 -1091.81,-250.926 -1479.29,-580.263c-308.843,-262.504 -451.169,-523.095 -411.032,-727.164c29.747,-151.165 155.765,-247.875 312.512,-297.342c131.058,-41.351 302.899,-53.524 492.469,-31.995Z" style="fill:#fff;"/></g><g><path d="M1693.3,557.054c-44.169,-23.493 -85.908,-52.826 -114.104,-81.359c-65.31,-66.059 -37.733,-108.004 52.774,-99.424c90.508,8.606 217.25,61.019 301.4,130.102c84.15,69.082 84.202,131.626 -20.65,123.563c-31.504,-2.404 -68.126,-10.777 -108.34,-24.423c-25.819,87.251 -57.608,188.949 -97.564,309.825c47.063,35.122 88.44,73.889 122.374,117.36c121.909,156.282 99.295,304.578 -79.342,302.175c-178.638,-2.404 -406.252,-161.839 -485.181,-323.936c-59.107,-121.47 -17.549,-205.672 84.305,-220.48c-49.596,-79.628 -94.488,-150.907 -136.046,-216.294c-107.72,-21.063 -216.965,-85.985 -251.985,-150.054c-32.021,-58.693 8.555,-97.666 85.908,-99.372c-27.887,-40.24 -54.171,-77.534 -78.981,-112.838c-17.73,-3.256 -35.201,-8.115 -51.793,-13.981c-71.848,42.204 -153.284,89.551 -246.945,143.282c24.785,18.608 43.109,40.421 51.302,63.319c26.516,74.123 -58.461,134.289 -199.366,124.675c-140.879,-9.641 -261.185,-90.405 -260.022,-161.038c1.137,-70.633 97.951,-107.669 213.554,-97.563c42.669,3.695 83.685,13.956 118.29,28.274c95.109,-49.183 178.147,-93.041 251.701,-131.937c-25.483,-13.982 -44.763,-30.161 -53.757,-45.693c-22.614,-39.052 27.654,-61.407 107.979,-52.568c80.325,8.839 170.342,45.822 204.586,85.364c31.013,35.795 6.952,62.932 -57.479,65.568c26.879,35.407 55.179,72.934 85.598,113.406c88.44,19.022 183.031,67.816 230.327,124.235c51.482,61.407 31.194,112.812 -49.079,123.77c46.753,65.542 97.537,136.95 153.439,216.629c35.175,8.374 71.228,20.934 106.144,36.441c47.967,-107.203 87.716,-198.46 120.953,-277.028Z" style="fill:#919191;"/><g><clipPath id="_clip1"><path d="M1693.3,557.054c-44.169,-23.493 -85.908,-52.826 -114.104,-81.359c-65.31,-66.059 -37.733,-108.004 52.774,-99.424c90.508,8.606 217.25,61.019 301.4,130.102c84.15,69.082 84.202,131.626 -20.65,123.563c-31.504,-2.404 -68.126,-10.777 -108.34,-24.423c-25.819,87.251 -57.608,188.949 -97.564,309.825c47.063,35.122 88.44,73.889 122.374,117.36c121.909,156.282 99.295,304.578 -79.342,302.175c-178.638,-2.404 -406.252,-161.839 -485.181,-323.936c-59.107,-121.47 -17.549,-205.672 84.305,-220.48c-49.596,-79.628 -94.488,-150.907 -136.046,-216.294c-107.72,-21.063 -216.965,-85.985 -251.985,-150.054c-32.021,-58.693 8.555,-97.666 85.908,-99.372c-27.887,-40.24 -54.171,-77.534 -78.981,-112.838c-17.73,-3.256 -35.201,-8.115 -51.793,-13.981c-71.848,42.204 -153.284,89.551 -246.945,143.282c24.785,18.608 43.109,40.421 51.302,63.319c26.516,74.123 -58.461,134.289 -199.366,124.675c-140.879,-9.641 -261.185,-90.405 -260.022,-161.038c1.137,-70.633 97.951,-107.669 213.554,-97.563c42.669,3.695 83.685,13.956 118.29,28.274c95.109,-49.183 178.147,-93.041 251.701,-131.937c-25.483,-13.982 -44.763,-30.161 -53.757,-45.693c-22.614,-39.052 27.654,-61.407 107.979,-52.568c80.325,8.839 170.342,45.822 204.586,85.364c31.013,35.795 6.952,62.932 -57.479,65.568c26.879,35.407 55.179,72.934 85.598,113.406c88.44,19.022 183.031,67.816 230.327,124.235c51.482,61.407 31.194,112.812 -49.079,123.77c46.753,65.542 97.537,136.95 153.439,216.629c35.175,8.374 71.228,20.934 106.144,36.441c47.967,-107.203 87.716,-198.46 120.953,-277.028Z"/></clipPath><g clip-path="url(#_clip1)"><path d="M1699.84,624.974c-44.168,-24.94 -85.907,-56.083 -114.104,-86.347c-65.309,-70.117 -37.759,-114.673 52.775,-105.55c90.508,9.124 217.25,64.767 301.374,138.088c84.15,73.347 84.227,139.742 -20.624,131.187c-31.505,-2.558 -68.152,-11.449 -108.341,-25.922c-25.818,92.601 -57.607,200.554 -97.563,328.873c47.037,37.268 88.44,78.412 122.374,124.596c121.909,165.871 99.269,323.29 -79.369,320.732c-178.612,-2.533 -406.251,-171.789 -485.154,-343.863c-59.107,-128.938 -17.549,-218.283 84.279,-234.022c-49.57,-84.538 -94.462,-160.211 -136.02,-229.604c-107.72,-22.381 -216.991,-91.283 -251.985,-159.306c-32.047,-62.285 8.555,-103.662 85.907,-105.472c-27.886,-42.695 -54.17,-82.289 -78.981,-119.763c-17.729,-3.464 -35.226,-8.607 -51.818,-14.835c-71.822,44.789 -153.284,95.056 -246.945,152.095c24.811,19.746 43.109,42.876 51.327,67.222c26.491,78.645 -58.46,142.533 -199.365,132.299c-140.879,-10.209 -261.185,-95.936 -260.048,-170.911c1.163,-74.975 97.977,-114.285 213.554,-103.585c42.695,3.928 83.71,14.835 118.316,30.032c95.108,-52.232 178.121,-98.753 251.701,-140.078c-25.483,-14.835 -44.763,-31.996 -53.757,-48.459c-22.614,-41.48 27.654,-65.206 107.979,-55.824c80.325,9.381 170.315,48.665 204.56,90.611c31.013,38.017 6.978,66.808 -57.453,69.625c26.878,37.578 55.152,77.405 85.597,120.359c88.441,20.184 183.032,72.003 230.327,131.885c51.457,65.18 31.169,119.738 -49.079,131.368c46.727,69.573 97.538,145.376 153.414,229.965c35.2,8.89 71.253,22.2 106.17,38.663c47.967,-113.768 87.69,-210.659 120.952,-294.059Z"/></g></g></g></g></svg>