<?xml version="1.0" encoding="UTF-8" standalone="no"?>
<!DOCTYPE svg PUBLIC "-//W3C//DTD SVG 1.1//EN" "http://www.w3.org/Graphics/SVG/1.1/DTD/svg11.dtd">
<svg width="100%" height="100%" viewBox="0 0 1333 111" version="1.1" xmlns="http://www.w3.org/2000/svg" xmlns:xlink="http://www.w3.org/1999/xlink" xml:space="preserve" xmlns:serif="http://www.serif.com/" style="fill-rule:evenodd;clip-rule:evenodd;stroke-linejoin:round;stroke-miterlimit:2;">
    <g transform="matrix(1,0,0,1,-283.314,-605.603)">
        <g>
            <g transform="matrix(4.16667,0,0,4.16667,182.834,573.461)">
                <g transform="matrix(0.402746,0,0,0.37959,-26.5035,7.3195)">
                    <path d="M156.49,3.474C163.667,4.335 171.153,6.445 178.315,9.456C186.198,12.77 194.632,17.659 202.063,23.857C211.651,31.86 218.757,41.06 220.563,49.717C222.964,61.228 215.657,70.748 197.348,71.072C177.396,71.426 156.03,60.857 141.403,47.282C129.744,36.463 124.394,25.695 125.947,17.239C127.097,10.975 131.885,6.951 137.831,4.878C142.802,3.144 149.313,2.613 156.49,3.474Z" style="fill:rgb(77,117,94);"/>
                </g>
                <g transform="matrix(0.394317,0,0,0.394317,-24.3196,7.47661)">
                    <path d="M156.064,1.007C163.398,1.84 171.053,3.84 178.38,6.683C186.445,9.81 195.079,14.412 202.693,20.233C212.518,27.75 219.812,36.375 221.69,44.473C224.187,55.239 216.76,64.106 198.059,64.338C177.68,64.589 155.814,54.629 140.821,41.886C128.871,31.729 123.364,21.646 124.917,13.75C126.068,7.901 130.944,4.159 137.009,2.245C142.08,0.645 148.729,0.174 156.064,1.007Z" style="fill:url(#_Linear1);"/>
                </g>
                <g transform="matrix(0.394317,0,0,0.394317,-24.3196,7.47661)">
                    <path d="M188.351,22.156C186.642,21.247 185.027,20.112 183.936,19.008C181.409,16.452 182.476,14.829 185.978,15.161C189.48,15.494 194.384,17.522 197.64,20.195C200.896,22.868 200.898,25.288 196.841,24.976C195.622,24.883 194.205,24.559 192.649,24.031C191.65,27.407 190.42,31.342 188.874,36.019C190.695,37.378 192.296,38.878 193.609,40.56C198.326,46.607 197.451,52.345 190.539,52.252C183.627,52.159 174.82,45.99 171.766,39.718C169.479,35.018 171.087,31.76 175.028,31.187C173.109,28.106 171.372,25.348 169.764,22.818C165.596,22.003 161.369,19.491 160.014,17.012C158.775,14.741 160.345,13.233 163.338,13.167C162.259,11.61 161.242,10.167 160.282,8.801C159.596,8.675 158.92,8.487 158.278,8.26C155.498,9.893 152.347,11.725 148.723,13.804C149.682,14.524 150.391,15.368 150.708,16.254C151.734,19.122 148.446,21.45 142.994,21.078C137.543,20.705 132.888,17.58 132.933,14.847C132.977,12.114 136.723,10.681 141.196,11.072C142.847,11.215 144.434,11.612 145.773,12.166C149.453,10.263 152.666,8.566 155.512,7.061C154.526,6.52 153.78,5.894 153.432,5.293C152.557,3.782 154.502,2.917 157.61,3.259C160.718,3.601 164.201,5.032 165.526,6.562C166.726,7.947 165.795,8.997 163.302,9.099C164.342,10.469 165.437,11.921 166.614,13.487C170.036,14.223 173.696,16.111 175.526,18.294C177.518,20.67 176.733,22.659 173.627,23.083C175.436,25.619 177.401,28.382 179.564,31.465C180.925,31.789 182.32,32.275 183.671,32.875C185.527,28.727 187.065,25.196 188.351,22.156Z" style="fill:rgb(77,117,94);"/>
                    <g>
                        <g>
                            <clipPath id="_clip2">
                                <path d="M188.351,22.156C186.642,21.247 185.027,20.112 183.936,19.008C181.409,16.452 182.476,14.829 185.978,15.161C189.48,15.494 194.384,17.522 197.64,20.195C200.896,22.868 200.898,25.288 196.841,24.976C195.622,24.883 194.205,24.559 192.649,24.031C191.65,27.407 190.42,31.342 188.874,36.019C190.695,37.378 192.296,38.878 193.609,40.56C198.326,46.607 197.451,52.345 190.539,52.252C183.627,52.159 174.82,45.99 171.766,39.718C169.479,35.018 171.087,31.76 175.028,31.187C173.109,28.106 171.372,25.348 169.764,22.818C165.596,22.003 161.369,19.491 160.014,17.012C158.775,14.741 160.345,13.233 163.338,13.167C162.259,11.61 161.242,10.167 160.282,8.801C159.596,8.675 158.92,8.487 158.278,8.26C155.498,9.893 152.347,11.725 148.723,13.804C149.682,14.524 150.391,15.368 150.708,16.254C151.734,19.122 148.446,21.45 142.994,21.078C137.543,20.705 132.888,17.58 132.933,14.847C132.977,12.114 136.723,10.681 141.196,11.072C142.847,11.215 144.434,11.612 145.773,12.166C149.453,10.263 152.666,8.566 155.512,7.061C154.526,6.52 153.78,5.894 153.432,5.293C152.557,3.782 154.502,2.917 157.61,3.259C160.718,3.601 164.201,5.032 165.526,6.562C166.726,7.947 165.795,8.997 163.302,9.099C164.342,10.469 165.437,11.921 166.614,13.487C170.036,14.223 173.696,16.111 175.526,18.294C177.518,20.67 176.733,22.659 173.627,23.083C175.436,25.619 177.401,28.382 179.564,31.465C180.925,31.789 182.32,32.275 183.671,32.875C185.527,28.727 187.065,25.196 188.351,22.156Z"/>
                            </clipPath>
                            <g clip-path="url(#_clip2)">
                                <path d="M188.604,24.784C186.895,23.819 185.28,22.614 184.189,21.443C181.662,18.73 182.728,17.006 186.231,17.359C189.733,17.712 194.637,19.865 197.892,22.702C201.148,25.54 201.151,28.109 197.094,27.778C195.875,27.679 194.457,27.335 192.902,26.775C191.903,30.358 190.673,34.535 189.127,39.5C190.947,40.942 192.549,42.534 193.862,44.321C198.579,50.739 197.703,56.83 190.791,56.731C183.88,56.633 175.072,50.084 172.019,43.426C169.732,38.437 171.34,34.98 175.28,34.371C173.362,31.1 171.625,28.172 170.017,25.487C165.849,24.621 161.621,21.955 160.267,19.323C159.027,16.913 160.598,15.312 163.591,15.242C162.512,13.59 161.495,12.058 160.535,10.608C159.849,10.474 159.172,10.275 158.53,10.034C155.751,11.767 152.599,13.712 148.975,15.919C149.935,16.683 150.643,17.578 150.961,18.52C151.986,21.563 148.699,24.035 143.247,23.639C137.796,23.244 133.141,19.927 133.185,17.026C133.23,14.125 136.976,12.604 141.448,13.018C143.1,13.17 144.687,13.592 146.026,14.18C149.706,12.159 152.918,10.359 155.765,8.76C154.779,8.186 154.033,7.522 153.685,6.885C152.81,5.28 154.755,4.362 157.863,4.725C160.971,5.088 164.453,6.608 165.778,8.231C166.978,9.702 166.048,10.816 163.555,10.925C164.595,12.379 165.689,13.92 166.867,15.582C170.289,16.363 173.949,18.368 175.779,20.685C177.77,23.207 176.985,25.318 173.88,25.768C175.688,28.46 177.654,31.393 179.816,34.666C181.178,35.01 182.573,35.525 183.924,36.162C185.78,31.76 187.317,28.011 188.604,24.784Z" style="fill:white;"/>
                            </g>
                        </g>
                    </g>
                </g>
            </g>
            <g transform="matrix(1,0,0,1,-332.211,-70.5781)">
                <g transform="matrix(72,0,0,72,817.758,751.093)">
                    <path d="M0.55,-0.292L0.744,-0.234C0.731,-0.18 0.71,-0.134 0.682,-0.098C0.654,-0.061 0.619,-0.034 0.578,-0.015C0.536,0.003 0.484,0.013 0.419,0.013C0.342,0.013 0.278,0.001 0.229,-0.021C0.179,-0.044 0.137,-0.084 0.101,-0.141C0.065,-0.198 0.047,-0.271 0.047,-0.359C0.047,-0.478 0.079,-0.569 0.142,-0.633C0.205,-0.696 0.294,-0.728 0.409,-0.728C0.499,-0.728 0.57,-0.71 0.622,-0.673C0.673,-0.637 0.712,-0.581 0.737,-0.505L0.542,-0.462C0.535,-0.484 0.528,-0.5 0.52,-0.51C0.508,-0.527 0.493,-0.54 0.475,-0.549C0.457,-0.558 0.437,-0.563 0.415,-0.563C0.364,-0.563 0.326,-0.542 0.299,-0.502C0.279,-0.472 0.269,-0.425 0.269,-0.361C0.269,-0.281 0.281,-0.227 0.305,-0.198C0.329,-0.168 0.363,-0.153 0.407,-0.153C0.449,-0.153 0.481,-0.165 0.503,-0.189C0.524,-0.213 0.54,-0.247 0.55,-0.292Z" style="fill:rgb(86,86,88);fill-rule:nonzero;"/>
                </g>
                <g transform="matrix(72,0,0,72,960.162,751.093)">
                    <path d="M0.045,-0.357C0.045,-0.474 0.078,-0.565 0.143,-0.63C0.208,-0.695 0.299,-0.728 0.415,-0.728C0.534,-0.728 0.626,-0.696 0.69,-0.632C0.755,-0.568 0.787,-0.479 0.787,-0.363C0.787,-0.28 0.773,-0.211 0.745,-0.157C0.717,-0.104 0.676,-0.062 0.623,-0.032C0.57,-0.003 0.503,0.012 0.424,0.012C0.343,0.012 0.276,-0.001 0.223,-0.026C0.17,-0.052 0.128,-0.093 0.095,-0.148C0.062,-0.204 0.045,-0.274 0.045,-0.357ZM0.267,-0.356C0.267,-0.284 0.28,-0.232 0.307,-0.201C0.334,-0.169 0.37,-0.153 0.417,-0.153C0.464,-0.153 0.501,-0.169 0.527,-0.2C0.553,-0.231 0.566,-0.286 0.566,-0.366C0.566,-0.434 0.552,-0.483 0.525,-0.514C0.498,-0.545 0.461,-0.561 0.415,-0.561C0.37,-0.561 0.334,-0.545 0.307,-0.513C0.28,-0.482 0.267,-0.429 0.267,-0.356Z" style="fill:rgb(86,86,88);fill-rule:nonzero;"/>
                </g>
                <g transform="matrix(72,0,0,72,1106.54,751.093)">
                    <path d="M0.075,-0.716L0.281,-0.716L0.551,-0.32L0.551,-0.716L0.759,-0.716L0.759,-0L0.551,-0L0.283,-0.393L0.283,-0L0.075,-0L0.075,-0.716Z" style="fill:rgb(86,86,88);fill-rule:nonzero;"/>
                </g>
                <g transform="matrix(72,0,0,72,1252.92,751.093)">
                    <path d="M0.035,-0.237L0.245,-0.25C0.25,-0.216 0.259,-0.19 0.273,-0.172C0.296,-0.143 0.328,-0.128 0.371,-0.128C0.402,-0.128 0.427,-0.136 0.444,-0.151C0.461,-0.165 0.469,-0.183 0.469,-0.202C0.469,-0.221 0.461,-0.237 0.445,-0.252C0.429,-0.267 0.391,-0.28 0.332,-0.293C0.235,-0.315 0.165,-0.344 0.124,-0.38C0.082,-0.417 0.062,-0.463 0.062,-0.519C0.062,-0.555 0.072,-0.59 0.094,-0.623C0.115,-0.656 0.147,-0.681 0.19,-0.7C0.233,-0.719 0.291,-0.728 0.366,-0.728C0.457,-0.728 0.527,-0.711 0.575,-0.677C0.623,-0.643 0.652,-0.589 0.661,-0.515L0.452,-0.502C0.447,-0.535 0.435,-0.558 0.417,-0.573C0.399,-0.587 0.375,-0.595 0.344,-0.595C0.318,-0.595 0.299,-0.589 0.286,-0.578C0.273,-0.567 0.266,-0.554 0.266,-0.539C0.266,-0.527 0.271,-0.517 0.282,-0.508C0.293,-0.498 0.317,-0.49 0.356,-0.481C0.453,-0.461 0.522,-0.44 0.564,-0.418C0.606,-0.397 0.636,-0.37 0.656,-0.339C0.675,-0.307 0.684,-0.272 0.684,-0.233C0.684,-0.187 0.671,-0.145 0.646,-0.106C0.621,-0.067 0.585,-0.038 0.54,-0.018C0.494,0.002 0.437,0.012 0.367,0.012C0.245,0.012 0.161,-0.011 0.114,-0.058C0.067,-0.105 0.041,-0.165 0.035,-0.237Z" style="fill:rgb(86,86,88);fill-rule:nonzero;"/>
                </g>
                <g transform="matrix(72,0,0,72,1391.31,751.093)">
                    <rect x="0.082" y="-0.716" width="0.222" height="0.716" style="fill:rgb(86,86,88);"/>
                </g>
                <g transform="matrix(72,0,0,72,1505.73,751.093)">
                    <path d="M0.073,-0.716L0.294,-0.716L0.294,-0.176L0.64,-0.176L0.64,-0L0.073,-0L0.073,-0.716Z" style="fill:rgb(86,86,88);fill-rule:nonzero;"/>
                </g>
                <g transform="matrix(72,0,0,72,1640.15,751.093)">
                    <rect x="0.082" y="-0.716" width="0.222" height="0.716" style="fill:rgb(86,86,88);"/>
                </g>
                <g transform="matrix(72,0,0,72,1754.57,751.093)">
                    <path d="M0.073,-0.716L0.666,-0.716L0.666,-0.563L0.294,-0.563L0.294,-0.449L0.639,-0.449L0.639,-0.303L0.294,-0.303L0.294,-0.162L0.676,-0.162L0.676,-0L0.073,-0L0.073,-0.716Z" style="fill:rgb(86,86,88);fill-rule:nonzero;"/>
                </g>
                <g transform="matrix(72,0,0,72,1892.97,751.093)">
                    <path d="M0.075,-0.716L0.281,-0.716L0.551,-0.32L0.551,-0.716L0.759,-0.716L0.759,-0L0.551,-0L0.283,-0.393L0.283,-0L0.075,-0L0.075,-0.716Z" style="fill:rgb(86,86,88);fill-rule:nonzero;"/>
                </g>
            </g>
        </g>
    </g>
    <defs>
        <linearGradient id="_Linear1" x1="0" y1="0" x2="1" y2="0" gradientUnits="userSpaceOnUse" gradientTransform="matrix(50.7831,38.7627,-38.7627,50.7831,140.599,8.23151)"><stop offset="0" style="stop-color:rgb(148,201,61);stop-opacity:1"/><stop offset="1" style="stop-color:rgb(91,151,64);stop-opacity:1"/></linearGradient>
    </defs>
</svg>
